<?xml version="1.0" encoding="UTF-8"?>
<svg xmlns="http://www.w3.org/2000/svg" viewBox="62 62 100 100">
  <path d="M111.8,63.6A48.2,48.2,0,1,0,160,111.8,48.226,48.226,0,0,0,111.8,63.6Zm0,91.9a43.7,43.7,0,1,1,43.7-43.7A43.745,43.745,0,0,1,111.8,155.5Z"/>
  <path d="M131.7,81.7h-3.3V98.2H95.3V81.7H91.9a36.063,36.063,0,0,0,0,60.2h3.4V125.4h33.1v16.5h3.3a36.063,36.063,0,0,0,0-60.2Zm-41,53.7a31.572,31.572,0,0,1,0-47.2Zm37.7-14.6H95.3V102.7h33.1Zm4.5,14.5v-10h0V98.2h0v-10a31.66,31.66,0,0,1,0,47.1Z"/>
</svg>
